<svg width="39" height="50" viewBox="0 0 39 50" fill="none" xmlns="http://www.w3.org/2000/svg">
<path fill-rule="evenodd" clip-rule="evenodd" d="M9.19238 34.9739C7.84543 34.0871 6.25503 33.7328 4.69295 33.9716H0.717255V49.3927H3.88352V43.507H5.2405C6.64625 43.6629 8.05881 43.2907 9.24 42.4532C10.2426 41.5248 10.7954 40.1512 10.7398 38.7264C10.814 37.2795 10.238 35.8826 9.19238 34.9739ZM6.64508 40.6026C6.04704 40.8868 5.38952 40.9933 4.74056 40.9111H3.8121V36.5417H4.74056C5.41475 36.4644 6.0949 36.6077 6.6927 36.953C7.24942 37.3716 7.56491 38.0723 7.52592 38.8035C7.59805 39.5407 7.24992 40.2518 6.64508 40.6026ZM17.5485 33.9716H13.5966V49.3927H17.3818C19.3109 49.5965 21.2535 49.1949 22.9764 48.2361C24.8721 46.7108 25.8849 44.2213 25.6427 41.6821C25.7846 39.5068 25.0667 37.3684 23.6668 35.7964C21.9375 34.3249 19.7322 33.6671 17.5485 33.9716ZM20.6909 45.8972C19.6991 46.4991 18.5635 46.7676 17.4294 46.6683H16.8105V36.696H17.3818C19.3816 36.696 20.1672 36.9016 20.9528 37.6726C21.9062 38.7443 22.3987 40.1993 22.3098 41.6821C22.4323 43.2869 21.8293 44.8568 20.6909 45.8972ZM29.1185 49.3927H32.3323V42.9415H38.8077V40.2171H32.3323V36.696H38.8077V33.9716H29.1185V49.3927ZM26.9044 0.559082H0.717255V28.8312H5.47856V23.6908V20.9921V5.69946H24.9285L34.0464 15.5433V20.9921V23.6908V28.8312H38.8077V13.41L26.9044 0.559082Z" fill="#00429A"/>
</svg>
