<svg width="42" height="51" viewBox="0 0 42 51" fill="none" xmlns="http://www.w3.org/2000/svg">
<path fill-rule="evenodd" clip-rule="evenodd" d="M3.67162 47.0618H4.28583C5.75231 47.0618 6.83789 46.8023 7.54494 46.2882C8.16391 45.8436 8.61147 45.1599 8.88525 44.2295C9.0876 43.5407 9.18997 42.8082 9.18997 42.0294C9.18997 41.1941 9.07332 40.4205 8.83764 39.7085C8.59957 38.9966 8.27818 38.4414 7.86871 38.0405C7.47828 37.6652 7.0331 37.4082 6.53554 37.2746C6.03799 37.1409 5.28808 37.0715 4.28583 37.0715H3.67162V47.0618ZM0.450592 49.7862V34.3497H4.40724C6.09036 34.3497 7.43305 34.5245 8.44245 34.874C9.76133 35.3315 10.7683 36.1797 11.4683 37.4159C12.1682 38.6548 12.5205 40.2071 12.5205 42.0731C12.5205 43.9905 12.1682 45.5557 11.4683 46.7688C10.5946 48.2981 9.24473 49.2311 7.414 49.5575C6.57363 49.7091 5.49758 49.7862 4.18584 49.7862H0.450592ZM21.2504 36.8011C20.0862 36.8011 19.1887 37.3229 18.5555 38.3689C17.9841 39.3148 17.6984 40.5253 17.6984 42.0058C17.6984 43.7201 18.0365 45.0514 18.7173 45.9947C19.3554 46.8891 20.2053 47.3338 21.2599 47.3338C22.4169 47.3338 23.3192 46.8094 23.9643 45.7531C24.5357 44.8253 24.8213 43.5993 24.8213 42.0726C24.8213 40.3943 24.4809 39.086 23.8024 38.1402C23.1644 37.2483 22.3121 36.8011 21.2504 36.8011ZM21.2599 34.0767C23.5072 34.0767 25.2284 34.8452 26.4259 36.3873C27.5758 37.8601 28.1495 39.7543 28.1495 42.0726C28.1495 44.6068 27.471 46.6218 26.114 48.1177C24.9428 49.4105 23.3239 50.0556 21.2599 50.0556C19.0149 50.0556 17.2913 49.2871 16.0939 47.7476C14.944 46.2749 14.3679 44.3498 14.3679 41.9749C14.3679 39.4921 15.0488 37.5002 16.4081 36.0044C17.5842 34.7193 19.203 34.0767 21.2599 34.0767ZM40.9305 46.1456L41.8709 48.9239C41.021 49.3686 40.283 49.6667 39.6497 49.8235C39.0165 49.9777 38.2356 50.0548 37.3095 50.0548C35.9097 50.0548 34.7527 49.8389 33.8385 49.4046C32.5578 48.7929 31.5936 47.8316 30.9437 46.5182C30.358 45.3411 30.0652 43.9018 30.0652 42.2029C30.0652 39.3371 30.8746 37.1628 32.4959 35.69C33.6719 34.6157 35.2241 34.0785 37.1477 34.0785C37.969 34.0785 38.7141 34.1582 39.3878 34.3201C40.0592 34.4846 40.8234 34.7725 41.6757 35.1863L40.5972 37.8027C39.4617 37.1345 38.3713 36.8004 37.3286 36.8004C36.0716 36.8004 35.1098 37.2656 34.4432 38.1934C33.7433 39.1675 33.3934 40.4526 33.3934 42.0513C33.3934 43.7065 33.76 45.0018 34.4932 45.9348C35.2265 46.8678 36.2382 47.333 37.5309 47.333C38.1142 47.333 38.6546 47.2508 39.145 47.0785C39.6354 46.9089 40.2306 46.5979 40.9305 46.1456ZM28.1504 0.908936H1.96326V29.181H6.72457V24.0406V21.3419V6.04932H26.1745L35.2924 15.8931V21.3419V24.0406V29.181H40.0537V13.7599L28.1504 0.908936Z" fill="#00429A"/>
</svg>
