<svg width="164" height="12" viewBox="0 0 164 12" fill="none" xmlns="http://www.w3.org/2000/svg">
<path fill-rule="evenodd" clip-rule="evenodd" d="M6 11C3.25 11 1 8.75 1 6C1 3.25 3.25 1 6 1C8.75 1 11 3.25 11 6C11 8.75 8.75 11 6 11Z" fill="#EEEEEE" stroke="#0052C1" stroke-linecap="square"/>
<path fill-rule="evenodd" clip-rule="evenodd" d="M25 11C22.25 11 20 8.75 20 6C20 3.25 22.25 1 25 1C27.75 1 30 3.25 30 6C30 8.75 27.75 11 25 11Z" fill="#EEEEEE" stroke="#0052C1" stroke-linecap="square"/>
<path fill-rule="evenodd" clip-rule="evenodd" d="M44 11C41.25 11 39 8.75 39 6C39 3.25 41.25 1 44 1C46.75 1 49 3.25 49 6C49 8.75 46.75 11 44 11Z" fill="#EEEEEE" stroke="#0052C1" stroke-linecap="square"/>
<path fill-rule="evenodd" clip-rule="evenodd" d="M63 11C60.25 11 58 8.75 58 6C58 3.25 60.25 1 63 1C65.75 1 68 3.25 68 6C68 8.75 65.75 11 63 11Z" fill="#EEEEEE" stroke="#0052C1" stroke-linecap="square"/>
<path fill-rule="evenodd" clip-rule="evenodd" d="M82 11C79.25 11 77 8.75 77 6C77 3.25 79.25 1 82 1C84.75 1 87 3.25 87 6C87 8.75 84.75 11 82 11Z" fill="#00429A" stroke="#0052C1" stroke-linecap="square"/>
<path fill-rule="evenodd" clip-rule="evenodd" d="M101 11C98.25 11 96 8.75 96 6C96 3.25 98.25 1 101 1C103.75 1 106 3.25 106 6C106 8.75 103.75 11 101 11Z" fill="#EEEEEE" stroke="#0052C1" stroke-linecap="square"/>
<path fill-rule="evenodd" clip-rule="evenodd" d="M120 11C117.25 11 115 8.75 115 6C115 3.25 117.25 1 120 1C122.75 1 125 3.25 125 6C125 8.75 122.75 11 120 11Z" fill="#EEEEEE" stroke="#0052C1" stroke-linecap="square"/>
<path fill-rule="evenodd" clip-rule="evenodd" d="M139 11C136.25 11 134 8.75 134 6C134 3.25 136.25 1 139 1C141.75 1 144 3.25 144 6C144 8.75 141.75 11 139 11Z" fill="#EEEEEE" stroke="#0052C1" stroke-linecap="square"/>
<path fill-rule="evenodd" clip-rule="evenodd" d="M158 11C155.25 11 153 8.75 153 6C153 3.25 155.25 1 158 1C160.75 1 163 3.25 163 6C163 8.75 160.75 11 158 11Z" fill="#EEEEEE" stroke="#0052C1" stroke-linecap="square"/>
</svg>
