<svg width="18" height="20" viewBox="0 0 18 20" fill="none" xmlns="http://www.w3.org/2000/svg">
<path d="M8.75414 18.525C13.0366 18.525 16.5083 14.6019 16.5083 9.7625C16.5083 4.9231 13.0366 1 8.75414 1C4.47164 1 1 4.9231 1 9.7625C1 14.6019 4.47164 18.525 8.75414 18.525Z" stroke="black" stroke-width="2" stroke-linecap="round" stroke-linejoin="round"/>
<path d="M11.3389 11.9531C10.932 12.566 10.3647 13.0187 9.7175 13.247C9.07026 13.4754 8.37585 13.4678 7.73261 13.2255C7.08938 12.9831 6.52992 12.5182 6.13348 11.8966C5.73704 11.2749 5.52372 10.5281 5.52371 9.7619C5.52371 8.99568 5.73703 8.24887 6.13346 7.62725C6.52989 7.00563 7.08934 6.5407 7.73257 6.29832C8.37581 6.05594 9.07022 6.04839 9.71746 6.27674C10.3647 6.50509 10.932 6.95776 11.3389 7.57065" stroke="black" stroke-width="2" stroke-linecap="round" stroke-linejoin="round"/>
</svg>
