<svg width="42" height="50" viewBox="0 0 42 50" fill="none" xmlns="http://www.w3.org/2000/svg">
<path fill-rule="evenodd" clip-rule="evenodd" d="M28.0776 0.718018H1.89041V28.9901H6.65172V23.8497V21.151V5.8584H26.1017L35.2196 15.7022V21.151V23.8497V28.9901H39.9809V13.569L28.0776 0.718018ZM0.18396 34.1595V36.8814H4.31916V49.5961H7.54018V36.8814H11.7373V34.1595H0.18396ZM24.4188 34.1595L21.0478 39.192L17.7196 34.1595H13.9748L19.0004 41.6773L13.713 49.5961H17.5149L20.8883 44.4429L24.2783 49.5961H28.1612L22.9071 41.7647L28.1017 34.1595H24.4188ZM30.2359 34.1595V36.8814H34.3735V49.5961H37.5945V36.8814H41.7892V34.1595H30.2359Z" fill="#00429A"/>
</svg>
