<svg width="39" height="39" viewBox="0 0 39 39" fill="none" xmlns="http://www.w3.org/2000/svg">
<g clip-path="url(#clip0_284_1581)">
<path d="M35.3169 24.3839L31.1732 18.4457V16.8421V15.9597V7.98919C31.1732 7.47145 30.9711 6.9846 30.6051 6.61933L24.993 1.00675C24.6271 0.640859 24.1398 0.439941 23.6237 0.439941H6.73421C4.91477 0.439941 3.43521 1.92012 3.43521 3.73894V33.4874C3.43521 35.3061 4.91485 36.7864 6.73421 36.7864H19.1019H22.1851C22.3327 36.9835 22.489 37.1745 22.6689 37.3457C23.4478 38.0905 24.497 38.5549 25.6579 38.5549C27.749 38.5549 25.5611 38.5549 28.3257 38.5549C29.4852 38.5549 30.5369 38.0905 31.3159 37.3457C32.2237 36.4794 32.6627 35.3408 32.6627 34.2178V31.1078C33.9216 30.8424 35.0006 30.0313 35.6058 28.8711C36.3559 27.4337 36.2457 25.7141 35.3169 24.3839ZM13.9152 32.6483H7.49697V4.57801H21.1359V8.20757C21.1359 9.50058 22.1876 10.5528 23.4811 10.5528H27.1113V15.706H27.0915V15.709C25.7185 15.6768 24.3332 16.2746 23.4478 17.5303L18.6666 24.3839C17.7377 25.7141 17.6273 27.4337 18.3777 28.8711C18.9828 30.0313 20.0617 30.8424 21.3208 31.1078V32.6482H20.5219H13.9152V32.6483ZM32.5647 27.2837C32.4071 27.5838 32.0996 27.7705 31.7621 27.7705H31.7609H29.232V34.2179C29.232 34.7176 28.8252 35.1233 28.3268 35.1233H28.3255H25.6578H25.6565C25.1579 35.1233 24.7511 34.7176 24.7511 34.2179V27.7705H22.2223H22.221C21.8836 27.7705 21.576 27.5838 21.4186 27.2837C21.2624 26.9835 21.2847 26.6246 21.4794 26.3466L26.248 19.5098C26.4179 19.2674 26.6959 19.1229 26.991 19.1229H26.9923C27.2875 19.1229 27.5652 19.2674 27.7351 19.5098L32.5039 26.3466C32.6985 26.6245 32.7209 26.9835 32.5647 27.2837Z" fill="#00429A"/>
</g>
<defs>
<clipPath id="clip0_284_1581">
<rect width="38.115" height="38.115" fill="white" transform="translate(0.710022 0.439941)"/>
</clipPath>
</defs>
</svg>
