<svg width="39" height="39" viewBox="0 0 39 39" fill="none" xmlns="http://www.w3.org/2000/svg">
<path fill-rule="evenodd" clip-rule="evenodd" d="M33.6256 0H4.94319C2.2272 0 0 2.22728 0 4.94335V33.6256C0 36.3418 2.2272 38.569 4.94319 38.569H33.6256C36.3418 38.569 38.569 36.3418 38.569 33.6257V4.94335C38.569 2.22728 36.3418 0 33.6256 0ZM29.5222 14.1157C29.5312 14.3402 29.5357 14.5648 29.5356 14.7895C29.5356 15.8221 29.4137 16.8777 29.1771 17.926C27.8387 23.8607 22.765 29.5794 14.5093 29.5794C11.5287 29.5794 8.75212 28.7196 6.41243 27.2436C6.83131 27.2928 7.25274 27.3173 7.67452 27.317C10.1485 27.317 12.4249 26.4872 14.2329 25.0905C11.9219 25.0499 9.97299 23.5465 9.30004 21.4814C9.62322 21.542 9.95347 21.5765 10.2927 21.5765C10.7774 21.5765 11.2415 21.5114 11.6866 21.3931C9.90742 21.0385 8.46703 19.8079 7.82261 18.177C7.59087 17.5935 7.47267 16.9593 7.47267 16.2933V16.2278C8.19584 16.6179 8.98884 16.8518 9.85311 16.8792C8.43738 15.9465 7.49806 14.3545 7.49806 12.5524C7.49806 11.5999 7.7568 10.7066 8.20974 9.93812C10.8138 13.0833 14.7034 15.1539 19.0924 15.3714C19.0025 14.9828 18.957 14.5853 18.9568 14.1865C18.9568 11.3156 21.3202 8.98779 24.2373 8.98779C25.757 8.98779 27.1287 9.61784 28.0897 10.6287C29.2717 10.4008 30.4063 9.97362 31.4451 9.36537C31.049 10.5811 30.2139 11.5999 29.1226 12.2429C30.1918 12.1173 31.2083 11.8386 32.155 11.426C31.4492 12.4677 30.5522 13.3835 29.5222 14.1157Z" fill="#1A1A1A"/>
</svg>
