<svg width="52" height="52" viewBox="0 0 52 52" fill="none" xmlns="http://www.w3.org/2000/svg">
<g clip-path="url(#clip0_284_1571)">
<path d="M6.26062 9.52682H24.3963C24.8366 9.52682 25.1933 9.17009 25.1933 8.72984C25.1933 8.28959 24.8366 7.93286 24.3963 7.93286H6.26062C5.82048 7.93286 5.46365 8.28959 5.46365 8.72984C5.46365 9.17009 5.82048 9.52682 6.26062 9.52682Z" fill="#00429A"/>
<path d="M6.26062 12.9638H26.3799C26.8202 12.9638 27.1769 12.6071 27.1769 12.1669C27.1769 11.7266 26.8202 11.3699 26.3799 11.3699H6.26062C5.82048 11.3699 5.46365 11.7266 5.46365 12.1669C5.46365 12.6071 5.82048 12.9638 6.26062 12.9638Z" fill="#00429A"/>
<path d="M35.2861 13.8286C34.2299 12.7726 32.5339 12.7375 31.4349 13.723V1.76207C31.4349 1.32181 31.0782 0.965088 30.6379 0.965088H2.07713C1.63698 0.965088 1.28015 1.32181 1.28015 1.76207V35.9731C1.28015 36.4134 1.63698 36.7701 2.07713 36.7701H30.6378C31.0781 36.7701 31.4348 36.4134 31.4348 35.9731V21.6429L35.2729 17.8048C35.2751 17.8027 35.2766 17.8004 35.2787 17.7984C35.2811 17.7961 35.2838 17.7941 35.2861 17.7917C36.3787 16.699 36.3787 14.9212 35.2861 13.8286ZM2.87411 35.1761V2.55904H29.8408V15.3107L26.7921 18.3595C26.6717 18.2864 26.531 18.2437 26.3799 18.2437H6.26062C5.82048 18.2437 5.46364 18.6004 5.46364 19.0406C5.46364 19.4809 5.82048 19.8376 6.26062 19.8376H25.3139L23.4709 21.6807H6.26062C5.82048 21.6807 5.46364 22.0374 5.46364 22.4776C5.46364 22.9179 5.82048 23.2746 6.26062 23.2746H21.8769L20.0339 25.1176H6.26062C5.82048 25.1176 5.46364 25.4744 5.46364 25.9146C5.46364 26.3549 5.82048 26.7116 6.26062 26.7116H18.44L16.9739 28.1777C16.9523 28.1993 16.9327 28.2219 16.9141 28.2452C16.9093 28.2514 16.9049 28.2578 16.9003 28.2641C16.8866 28.2824 16.8735 28.301 16.8616 28.3201C16.8571 28.3272 16.8529 28.3347 16.8486 28.342C16.837 28.3619 16.8265 28.3822 16.8167 28.4027C16.8147 28.407 16.8122 28.4109 16.8102 28.4152L16.6799 28.7058C16.5487 28.611 16.3881 28.5545 16.214 28.5545H6.26062C5.82048 28.5545 5.46364 28.9113 5.46364 29.3515C5.46364 29.7918 5.82048 30.1485 6.26062 30.1485H16.0332L15.007 32.4373C14.9886 32.4784 14.9746 32.5205 14.9635 32.5631C14.7553 33.006 14.8326 33.551 15.1979 33.9163C15.4235 34.142 15.7234 34.2662 16.0426 34.2662C16.2238 34.2662 16.3982 34.2249 16.5569 34.1489C16.5975 34.1379 16.6378 34.1249 16.6769 34.1073L20.6993 32.3043C20.7034 32.3023 20.7072 32.2999 20.7112 32.2979C20.7322 32.2881 20.753 32.2774 20.7732 32.2655C20.7802 32.2614 20.7872 32.2574 20.794 32.2531C20.8138 32.2408 20.8331 32.2274 20.852 32.2132C20.8575 32.2089 20.8634 32.2051 20.8689 32.2008C20.8924 32.182 20.9152 32.1623 20.9369 32.1406L29.8408 23.2367V35.1761H2.87411ZM18.992 31.323L16.9125 32.2552C16.9038 32.2459 16.8961 32.2361 16.8872 32.2271C16.8783 32.2182 16.8686 32.2105 16.8595 32.2019L17.7917 30.1227L18.992 31.323ZM20.3734 30.4502L18.6646 28.7413L31.8736 15.5323L33.5824 17.2412L20.3734 30.4502ZM34.5075 15.912L33.2028 14.6073C33.5453 14.5785 33.8976 14.6942 34.1591 14.9558C34.4206 15.2172 34.5362 15.5696 34.5075 15.912Z" fill="#00429A"/>
<path d="M6.26062 16.4008H23.2628C23.7031 16.4008 24.0598 16.0441 24.0598 15.6039C24.0598 15.1636 23.7031 14.8069 23.2628 14.8069H6.26062C5.82048 14.8069 5.46365 15.1636 5.46365 15.6039C5.46365 16.0441 5.82048 16.4008 6.26062 16.4008Z" fill="#00429A"/>
</g>
<defs>
<clipPath id="clip0_284_1571">
<rect width="50.82" height="50.82" fill="white" transform="translate(0.584999 0.965088)"/>
</clipPath>
</defs>
</svg>
