<svg width="57" height="39" viewBox="0 0 57 39" fill="none" xmlns="http://www.w3.org/2000/svg">
<path d="M24.1217 19.5C24.1217 20.303 23.4647 20.96 22.6617 20.96H9.52172C8.71872 20.96 8.06172 20.303 8.06172 19.5C8.06172 18.697 8.71872 18.04 9.52172 18.04H22.6617C23.4647 18.04 24.1217 18.697 24.1217 19.5ZM19.7417 28.26H9.52172C8.71872 28.26 8.06172 28.917 8.06172 29.72C8.06172 30.523 8.71872 31.18 9.52172 31.18H19.7417C20.5447 31.18 21.2017 30.523 21.2017 29.72C21.2017 28.917 20.5447 28.26 19.7417 28.26ZM22.6617 7.82H9.52172C8.71872 7.82 8.06172 8.477 8.06172 9.28C8.06172 10.083 8.71872 10.74 9.52172 10.74H22.6617C23.4647 10.74 24.1217 10.083 24.1217 9.28C24.1217 8.477 23.4647 7.82 22.6617 7.82ZM56.2417 1.98V37.02C56.2417 37.823 55.5847 38.48 54.7817 38.48H2.22172C1.41872 38.48 0.761719 37.823 0.761719 37.02V1.98C0.761719 1.177 1.41872 0.52 2.22172 0.52H54.7817C55.5847 0.52 56.2417 1.177 56.2417 1.98ZM53.3217 3.44H3.68172V35.56H53.3217V3.44ZM48.8687 29.72C48.8687 30.523 48.2117 31.18 47.4087 31.18H27.0417C26.2387 31.18 25.5817 30.523 25.5817 29.72C25.5817 24.902 28.4287 20.814 32.5897 18.989C31.2027 17.602 30.2537 15.704 30.2537 13.66C30.2537 9.791 33.4657 6.36 37.1887 6.36C40.9117 6.36 44.1237 9.791 44.1237 13.66C44.1237 15.704 43.2477 17.602 41.7877 18.989C45.9487 20.814 48.8687 24.902 48.8687 29.72ZM33.1737 13.66C33.1737 15.704 34.9257 18.04 37.1887 18.04C39.4517 18.04 41.2037 15.704 41.2037 13.66C41.2037 11.616 39.4517 9.28 37.1887 9.28C34.9257 9.28 33.1737 11.616 33.1737 13.66ZM45.8757 28.26C45.2187 24.099 41.5687 20.96 37.2617 20.96C32.9547 20.96 29.3777 24.099 28.6477 28.26H45.8757Z" fill="#0052C1"/>
</svg>
